<?xml version="1.0" encoding="UTF-8" standalone="no"?>
<!DOCTYPE svg PUBLIC "-//W3C//DTD SVG 1.1//EN"
 "http://www.w3.org/Graphics/SVG/1.1/DTD/svg11.dtd">
<!-- Generated by graphviz version 2.49.1 (20210923.0004)
 -->
<!-- Pages: 1 -->
<svg width="128pt" height="260pt"
 viewBox="0.00 0.00 127.59 260.00" xmlns="http://www.w3.org/2000/svg" xmlns:xlink="http://www.w3.org/1999/xlink">
<g id="graph0" class="graph" transform="scale(1 1) rotate(0) translate(4 256)">
<polygon fill="white" stroke="transparent" points="-4,4 -4,-256 123.59,-256 123.59,4 -4,4"/>
<!-- dependencies -->
<g id="node1" class="node">
<title>dependencies</title>
<ellipse fill="none" stroke="black" cx="59.79" cy="-234" rx="59.59" ry="18"/>
<text text-anchor="middle" x="59.79" y="-230.3" font-family="Times,serif" font-size="14.00">dependencies</text>
</g>
<!-- create -->
<g id="node2" class="node">
<title>create</title>
<ellipse fill="none" stroke="black" cx="59.79" cy="-162" rx="32.49" ry="18"/>
<text text-anchor="middle" x="59.79" y="-158.3" font-family="Times,serif" font-size="14.00">create</text>
</g>
<!-- dependencies&#45;&gt;create -->
<g id="edge1" class="edge">
<title>dependencies&#45;&gt;create</title>
<path fill="none" stroke="black" d="M59.79,-215.7C59.79,-207.98 59.79,-198.71 59.79,-190.11"/>
<polygon fill="black" stroke="black" points="63.29,-190.1 59.79,-180.1 56.29,-190.1 63.29,-190.1"/>
</g>
<!-- update -->
<g id="node3" class="node">
<title>update</title>
<ellipse fill="none" stroke="black" cx="59.79" cy="-90" rx="35.19" ry="18"/>
<text text-anchor="middle" x="59.79" y="-86.3" font-family="Times,serif" font-size="14.00">update</text>
</g>
<!-- create&#45;&gt;update -->
<g id="edge2" class="edge">
<title>create&#45;&gt;update</title>
<path fill="none" stroke="black" d="M59.79,-143.7C59.79,-135.98 59.79,-126.71 59.79,-118.11"/>
<polygon fill="black" stroke="black" points="63.29,-118.1 59.79,-108.1 56.29,-118.1 63.29,-118.1"/>
</g>
<!-- update&#45;&gt;update -->
<g id="edge3" class="edge">
<title>update&#45;&gt;update</title>
<path fill="none" stroke="black" d="M84.92,-102.76C99.41,-105.36 112.89,-101.11 112.89,-90 112.89,-81.58 105.15,-77.1 95.09,-76.56"/>
<polygon fill="black" stroke="black" points="94.67,-73.08 84.92,-77.24 95.14,-80.06 94.67,-73.08"/>
</g>
<!-- destroy -->
<g id="node4" class="node">
<title>destroy</title>
<ellipse fill="none" stroke="black" cx="59.79" cy="-18" rx="37.89" ry="18"/>
<text text-anchor="middle" x="59.79" y="-14.3" font-family="Times,serif" font-size="14.00">destroy</text>
</g>
<!-- update&#45;&gt;destroy -->
<g id="edge4" class="edge">
<title>update&#45;&gt;destroy</title>
<path fill="none" stroke="black" d="M59.79,-71.7C59.79,-63.98 59.79,-54.71 59.79,-46.11"/>
<polygon fill="black" stroke="black" points="63.29,-46.1 59.79,-36.1 56.29,-46.1 63.29,-46.1"/>
</g>
</g>
</svg>
